<svg id="圖層_1" data-name="圖層 1" xmlns="http://www.w3.org/2000/svg" viewBox="0 0 600 200"><title>claire-logo</title><path d="M31.41,173.12a30.25,30.25,0,0,1-9.92-1.76,17.79,17.79,0,0,1-7.68-4.64,36.73,36.73,0,0,1-5.43-10.87,44,44,0,0,1-2.24-14.07l.32-4.48L8.7,122q1.59-10.56,4-21.11t6.55-27.5q1.92-7.36,9-21.27A148.31,148.31,0,0,1,41,30.48q11.52-14.7,18.23-16.63a22.81,22.81,0,0,1,5.76-1,8.26,8.26,0,0,1,7.19,3.36q2.4,3.36,3.36,9.75a13.05,13.05,0,0,1,.32,3.52c0,2.35-.53,4.05-1.6,5.12C72.77,36.13,72,38.59,72,42q-.31,4.48-2.88,6.56c-1.7,1.39-3.19,1.33-4.47-.16q-1.92-1.92-2.56-9.91-.33-7.68-1.6-8.32l-.64-.32c-.43,0-1.49.85-3.2,2.56q-4.48,5.45-13,21.27T32.36,79.73q-2.87,9.92-2.23,10.88v.64q0,1.27-1.92,5.75a95.54,95.54,0,0,0-3.52,12.16l-1,6.71-1,7a129.17,129.17,0,0,0-1.6,16q0,10.88,3.84,16.31,1.59,1.92,2.88,1.92h1l5.11-.32q5.11-1,13-5.76a138.58,138.58,0,0,0,14.23-9.91,12.43,12.43,0,0,0,4.48-5.76q2.24-5.12,5.43-5.12,2.88,0,5.28,3.36a12.16,12.16,0,0,1,2.4,7.2,9.54,9.54,0,0,1-1,4.8,55.32,55.32,0,0,1-6.72,7,122.83,122.83,0,0,1-10.55,9q-10.87,8.63-16.63,8.63a11.29,11.29,0,0,0-6.08,1.6A13,13,0,0,1,31.41,173.12Z"/><path d="M96.65,168q0-2.55,2.56-8.31c1.7-3.84,2.56-5.86,2.56-6.08l17.59-50.21a78.86,78.86,0,0,0,2.56-7.68q3.18-9.27,7.67-21.9T135,57.67l2.88-11.52q.32-1.27,4.31-17.59T149.1,9.37a6.45,6.45,0,0,1,4.48-2.24,4,4,0,0,1,3.52,1.92,9.13,9.13,0,0,1,1.28,5.12,13.3,13.3,0,0,1-1,4.48L156.14,25a199.36,199.36,0,0,1-8,34.86c-1.07,3.42-1.49,5.44-1.28,6.08q.64,2.56-13.43,42.22l-3.84,11.51q-11.2,35.51-14.39,42.54-3.21,8-5.12,10.23a6.43,6.43,0,0,1-5.12,2.88l-3.51-.64A6.46,6.46,0,0,1,96.65,168Z"/><path d="M235.45,194.55a9.53,9.53,0,0,1-4.8-1.28,5.86,5.86,0,0,1-2.87-3.2,41.44,41.44,0,0,1-.64-8q0-11.19,1.6-17,1.9-5.44,1.91-7.68c0-1.49-.43-2.34-1.27-2.56l-.64-.32q-.33,0-1.92,1.92-3.21,3.84-11.2,6.56A48.55,48.55,0,0,1,200,165.77c-.64,0-2.67-.21-6.07-.64q-13.12-3.52-13.12-14.08a12.91,12.91,0,0,1,.32-3.51A29.15,29.15,0,0,1,184.6,136q2.88-4.47,2.88-6.71t8-11.2q8.33-9.27,28.47-10.23a78.71,78.71,0,0,0,10.23-1.28,4.77,4.77,0,0,0,1.6-4.48q-1.61-9.27-6.87-14.71t-15.52-8a66.36,66.36,0,0,0-9.27-.64,63.7,63.7,0,0,0-10.87.64,10.08,10.08,0,0,1-5.12,1.28q-3.84,0-4.8-1.6c-1.07-.42-1.6-1.49-1.6-3.19a6.38,6.38,0,0,1,2.56-4.8,7.82,7.82,0,0,1,5.12-2.24l7.67-2.24a20.25,20.25,0,0,1,8-1.28,89.71,89.71,0,0,1,9.75.8c4.37.54,7.52,1.33,9.44,2.4a50.06,50.06,0,0,1,10.55,7,39.35,39.35,0,0,1,11.36,11.67q4,6.56,4,19.35a127.82,127.82,0,0,1-1,14.39q-1.92,17.27-3.83,27.82-4.17,28.78-3.84,34.86l.64,4.16c0,2.56-1.5,4.69-4.48,6.4A4.28,4.28,0,0,1,235.45,194.55Zm-31.34-47a10.65,10.65,0,0,0,4.16-1q4.47-1.92,11.51-8.32t7.36-8.64l1-3.83.64-2.88a17.79,17.79,0,0,0,.64-6.08c0-.42-.86-.42-2.56,0q-3.21.33-13.12,3.52-13.11,3.53-16.95,15a19.56,19.56,0,0,0-1,5.44q0,4.8,4.8,6.08Z"/><path d="M283.11,164.49q-1.61-1.92-1.6-5.76a27.21,27.21,0,0,1,3.19-12.15l2.88-6.4a101.09,101.09,0,0,0,7.36-18.87c.85-3,2-6.56,3.52-10.71a50.86,50.86,0,0,1,3.83-8.8l3.2-6.4q5.11-9.27,5.12-10.55c0-.85.85-1.7,2.56-2.56A11.37,11.37,0,0,1,318.29,81a4.39,4.39,0,0,1,3.19,1c.64.64,1,1.82,1,3.52q0,4.8-2.87,15.35-11.85,40.3-22.39,61.09c-1.28,2.13-2.3,3.41-3,3.84s-2.29.64-4.64.64Q284.7,166.41,283.11,164.49Zm6.71-133c-3.41-1.7-5.12-3.84-5.12-6.4a8.5,8.5,0,0,1,1.6-4.15c1.49-2.13,3.95-3.31,7.36-3.52q10.88-1,18.23-1,10.23,0,12.79,1.6a5.89,5.89,0,0,1,2.88,5.11,11.11,11.11,0,0,1-2.24,6.4L323.08,33,310,33.68a79.35,79.35,0,0,1-9,.32A24.62,24.62,0,0,1,289.82,31.44Z"/><path d="M355.54,170.24a8.72,8.72,0,0,1-2.71-3.2,4.27,4.27,0,0,1-1.28-3.19q0-2.23,12.79-37.74a322.36,322.36,0,0,0,9.59-34.22q1.6-6.4,3.84-13.28c1.49-4.58,2.35-7.19,2.56-7.83a10.84,10.84,0,0,1,2.72-5.44,13.12,13.12,0,0,1,4.64-3.84,13.74,13.74,0,0,1,5.43-1c3.84,0,5.76,1.5,5.76,4.48q0,3.53-4.48,8.64a13.17,13.17,0,0,0-4.15,9.59A36,36,0,0,1,388,95.08a46.08,46.08,0,0,0-1.6,6.72c0,1.07.42,1.6,1.28,1.6q1.92,0,8.31-3.52a135.78,135.78,0,0,1,14.39-5.43q7.68-2.57,9-3.2,5.76-2.88,8.64-1.92a4.75,4.75,0,0,1,2.23,1.28,18.4,18.4,0,0,1,.32,4.79,10.82,10.82,0,0,1-2.55,7.2q-2.57,3-5.44,3-5.76,0-15.19,4.8a61.35,61.35,0,0,0-15.83,11.19q-14.08,14.07-19.51,31-6.4,18.89-13.44,18.87A5.45,5.45,0,0,1,355.54,170.24Z"/><path d="M452.61,162.57a27.68,27.68,0,0,1-1-8.32,81.86,81.86,0,0,1,.8-11.19,51.35,51.35,0,0,1,1.44-7.68l1.6-9.91q1-11.52,9.59-29.91t15.68-24.14q1.92-1.92,9.59-5.44t9.6-3.52c1.7,0,4.15.86,7.35,2.56a25.1,25.1,0,0,1,7,5.12,13,13,0,0,1,3.83,9q0,2.88-3,9.12c-2,4.16-3,6-3,5.6q-3.84,7.66-13.43,14.87t-17.27,8.47a63.13,63.13,0,0,0-9,1.6,3.29,3.29,0,0,0-2.56,2.88l-1,9a116.91,116.91,0,0,1-2.24,14.72,28.13,28.13,0,0,0-1,6.71q0,6.41,6.72,6.4A41.05,41.05,0,0,0,483,156.49a59.48,59.48,0,0,0,24-14.71,40.82,40.82,0,0,1,6.08-5.12,9,9,0,0,1,3.84-.64h2.23c.85,0,1.39.16,1.6.48a6.23,6.23,0,0,1,.64,1.76,9,9,0,0,1,.32,1.92q.64,5.44-5,11.83a57.93,57.93,0,0,1-14.24,11.52q-8.62,5.43-14.07,7.19t-14.71,1.76Q455.81,172.48,452.61,162.57Zm28.47-60.13a21.17,21.17,0,0,0,5.75-3.68q2.24-2.07,10.56-11.35c2.34-3,3.51-5.44,3.51-7.36a2.88,2.88,0,0,0-3.19-2.88q-2.25,0-6.4,2.24a5,5,0,0,1-.8.64,5.87,5.87,0,0,1-1.44.64,14.41,14.41,0,0,0-4.16,5.76q-2.24,4.15-4.63,9.59t-1.44,6.4C479.26,102.87,480,102.87,481.08,102.44Z"/><path d="M563.59,173.12q-5.76-5.43-5.76-8t2.72-7.36a58.3,58.3,0,0,1,6.24-9,6.81,6.81,0,0,1,3.84-3.19,22.75,22.75,0,0,1,6.07-.64q12.15,0,15.67,7.35l2.24,4.16-2.24,7q-1.92,6.08-8.31,10.55t-12.15,4.48Q569.35,178.56,563.59,173.12Z"/></svg>